<?xml version="1.0" encoding="UTF-8" standalone="no"?>
<svg
   viewBox="0 0 256 256"
   version="1.1"
   id="svg4"
   sodipodi:docname="github.svg"
   width="256"
   height="256"
   inkscape:version="1.2 (dc2aedaf03, 2022-05-15)"
   xmlns:inkscape="http://www.inkscape.org/namespaces/inkscape"
   xmlns:sodipodi="http://sodipodi.sourceforge.net/DTD/sodipodi-0.dtd"
   xmlns="http://www.w3.org/2000/svg"
   xmlns:svg="http://www.w3.org/2000/svg">
  <defs
     id="defs8" />
  <sodipodi:namedview
     id="namedview6"
     pagecolor="#505050"
     bordercolor="#eeeeee"
     borderopacity="1"
     inkscape:showpageshadow="0"
     inkscape:pageopacity="0"
     inkscape:pagecheckerboard="0"
     inkscape:deskcolor="#505050"
     showgrid="false"
     inkscape:zoom="0.921875"
     inkscape:cx="33.627119"
     inkscape:cy="126.91525"
     inkscape:window-width="1920"
     inkscape:window-height="1080"
     inkscape:window-x="0"
     inkscape:window-y="0"
     inkscape:window-maximized="1"
     inkscape:current-layer="svg4" />
  <!--! Font Awesome Pro 6.1.1 by @fontawesome - https://fontawesome.com License - https://fontawesome.com/license (Commercial License) Copyright 2022 Fonticons, Inc. -->
  <path
     d="m 96.219356,185.13404 c 0,0.77419 -0.890321,1.39355 -2.012903,1.39355 -1.277418,0.11613 -2.167743,-0.50323 -2.167743,-1.39355 0,-0.77419 0.890325,-1.39355 2.012902,-1.39355 1.161293,-0.11613 2.167744,0.50323 2.167744,1.39355 z M 84.180645,183.3921 c -0.270968,0.7742 0.503227,1.66452 1.664516,1.89678 1.006451,0.3871 2.167744,0 2.4,-0.7742 0.23226,-0.77419 -0.503224,-1.66451 -1.664516,-2.0129 -1.006451,-0.27097 -2.129033,0.11613 -2.4,0.89032 z m 17.109675,-0.65806 c -1.12258,0.27097 -1.896769,1.00645 -1.780643,1.89677 0.11613,0.7742 1.122583,1.27742 2.283873,1.00645 1.12258,-0.27096 1.89677,-1.00645 1.78064,-1.78064 -0.11612,-0.73549 -1.16129,-1.23871 -2.28387,-1.12258 z M 126.76129,34.39856 C 73.070966,34.39856 32,75.159849 32,128.85017 c 0,42.92903 27.019355,79.66451 65.612905,92.59355 4.954835,0.89032 6.696775,-2.16774 6.696775,-4.68387 0,-2.4 -0.11613,-15.63872 -0.11613,-23.76775 0,0 -27.096775,5.80646 -32.7871,-11.53548 0,0 -4.412902,-11.26452 -10.761288,-14.16774 0,0 -8.864517,-6.07742 0.619355,-5.96129 0,0 9.63871,0.77419 14.941937,9.98709 8.477418,14.94194 22.683869,10.64517 28.219356,8.09033 0.89032,-6.19355 3.40645,-10.49033 6.19354,-13.04516 -21.638705,-2.4 -43.470961,-5.53549 -43.470961,-42.77419 0,-10.64517 2.941935,-15.9871 9.135484,-22.80001 C 75.277421,98.269527 71.987097,87.895333 77.290324,74.501784 85.380645,71.985654 104,84.953398 104,84.953398 c 7.74194,-2.167744 16.06452,-3.290325 24.30968,-3.290325 8.24516,0 16.56774,1.122581 24.30967,3.290325 0,0 18.61936,-13.006451 26.70968,-10.451614 5.30323,13.43226 2.01291,23.767743 1.00645,26.283866 6.19355,6.85162 9.9871,12.19355 9.9871,22.80001 0,37.35483 -22.8,40.33548 -44.43871,42.77419 3.56129,3.05806 6.58065,8.86451 6.58065,17.96128 0,13.04517 -0.11613,29.1871 -0.11613,32.3613 0,2.51613 1.78064,5.57419 6.69677,4.68387 C 197.75484,208.51468 224,171.7792 224,128.85017 224,75.159849 180.45161,34.39856 126.76129,34.39856 Z M 69.625808,167.90823 c -0.503228,0.3871 -0.387098,1.27742 0.270967,2.01291 0.619354,0.61935 1.509675,0.89032 2.012903,0.38709 0.503227,-0.38709 0.387097,-1.27742 -0.270968,-2.0129 -0.619353,-0.61936 -1.509678,-0.89032 -2.012902,-0.3871 z m -4.180646,-3.13548 c -0.270968,0.50322 0.116129,1.12258 0.890322,1.50968 0.619356,0.38709 1.393548,0.27097 1.664515,-0.27097 0.270968,-0.50323 -0.116126,-1.12258 -0.890321,-1.50968 -0.774194,-0.23226 -1.393548,-0.11613 -1.664516,0.27097 z m 12.541934,13.78065 c -0.619353,0.50322 -0.387097,1.66451 0.503228,2.39999 0.890321,0.89033 2.012902,1.00646 2.51613,0.3871 0.503224,-0.50323 0.270967,-1.66451 -0.503228,-2.4 -0.851613,-0.89032 -2.012902,-1.00645 -2.51613,-0.38709 z m -4.412902,-5.69033 c -0.619354,0.3871 -0.619354,1.39355 0,2.28387 0.619354,0.89033 1.664516,1.27742 2.167744,0.89033 0.619353,-0.50323 0.619353,-1.50968 0,-2.4 -0.541939,-0.89033 -1.54839,-1.27742 -2.167744,-0.7742 z"
     id="path2"
     style="stroke-width:1;fill:#ffffff;fill-opacity:1;stroke:none;stroke-opacity:1" />
</svg>
