<?xml version="1.0" encoding="UTF-8" standalone="no"?>
<!-- Created with Inkscape (http://www.inkscape.org/) -->

<svg
   width="256"
   height="256"
   viewBox="0 0 256 256"
   version="1.1"
   id="svg5"
   inkscape:version="1.2 (dc2aedaf03, 2022-05-15)"
   sodipodi:docname="info.svg"
   xmlns:inkscape="http://www.inkscape.org/namespaces/inkscape"
   xmlns:sodipodi="http://sodipodi.sourceforge.net/DTD/sodipodi-0.dtd"
   xmlns="http://www.w3.org/2000/svg"
   xmlns:svg="http://www.w3.org/2000/svg">
  <sodipodi:namedview
     id="namedview7"
     pagecolor="#505050"
     bordercolor="#eeeeee"
     borderopacity="1"
     inkscape:pageshadow="0"
     inkscape:pageopacity="0"
     inkscape:pagecheckerboard="0"
     inkscape:document-units="px"
     showgrid="false"
     units="px"
     width="1000px"
     scale-x="1"
     inkscape:zoom="0.90583671"
     inkscape:cx="66.237104"
     inkscape:cy="122.53864"
     inkscape:window-width="1904"
     inkscape:window-height="1064"
     inkscape:window-x="1928"
     inkscape:window-y="8"
     inkscape:window-maximized="0"
     inkscape:current-layer="layer1"
     inkscape:showpageshadow="0"
     inkscape:deskcolor="#505050" />
  <defs
     id="defs2">
    <inkscape:path-effect
       effect="powerclip"
       id="path-effect1102"
       is_visible="true"
       lpeversion="1"
       inverse="true"
       flatten="false"
       hide_clip="false"
       message="Use fill-rule evenodd on &lt;b&gt;fill and stroke&lt;/b&gt; dialog if no flatten result after convert clip to paths." />
    <clipPath
       clipPathUnits="userSpaceOnUse"
       id="clipPath1094">
      <g
         id="g1100"
         style="display:none">
        <rect
           style="fill:#ff0000;fill-opacity:0.304649;stroke:none;stroke-width:16;stroke-linecap:round;stroke-linejoin:round;paint-order:markers fill stroke"
           id="rect1096"
           width="32"
           height="128"
           x="112"
           y="88"
           d="m 112,88 h 32 v 128 h -32 z" />
        <circle
           style="fill:#ff0000;fill-opacity:0.304649;stroke:none;stroke-width:16;stroke-linecap:round;stroke-linejoin:round;paint-order:markers fill stroke"
           id="circle1098"
           cx="128"
           cy="56"
           r="16"
           d="M 144,56 A 16,16 0 0 1 128,72 16,16 0 0 1 112,56 16,16 0 0 1 128,40 16,16 0 0 1 144,56 Z" />
      </g>
      <path
         id="lpe_path-effect1102"
         class="powerclip"
         d="M -5,-5 H 261 V 261 H -5 Z m 117,93 v 128 h 32 V 88 Z m 32,-32 a 16,16 0 0 0 -16,-16 16,16 0 0 0 -16,16 16,16 0 0 0 16,16 16,16 0 0 0 16,-16 z" />
    </clipPath>
  </defs>
  <g
     inkscape:label="Layer 1"
     inkscape:groupmode="layer"
     id="layer1">
    <path
       style="fill:#ffffff;fill-opacity:1;stroke:none;stroke-width:16;stroke-linecap:round;stroke-linejoin:round;paint-order:markers fill stroke"
       id="path736"
       clip-path="url(#clipPath1094)"
       inkscape:path-effect="#path-effect1102"
       sodipodi:type="arc"
       sodipodi:cx="128"
       sodipodi:cy="128"
       sodipodi:rx="128"
       sodipodi:ry="128"
       d="M 256,128 A 128,128 0 0 1 128,256 128,128 0 0 1 0,128 128,128 0 0 1 128,0 128,128 0 0 1 256,128 Z" />
  </g>
</svg>
